# xmcd
#
# Track frame offsets: 
#        150
#        19138
#        50466
#        73433
#        92726
#        118119
#        138076
#        160458
#        174789
#        191544
#
# Disc length: 2853 seconds
#
# Revision: 0
# Processed by: cddbd v1.5.2PL0 Copyright (c) Steve Scherf et al.
# Submitted via: ExactAudioCopy v1.0b3
#
DISCID=870b230a
DTITLE=The Danny Cowan Group - Drivin' Back To Texas
DYEAR=2005
DGENRE=Blues
TTITLE0=Backwards Shuffle
TTITLE1=When the Blues Follow You Home
TTITLE2=Drivin' Back to Texas
TTITLE3=The Whip
TTITLE4=Runnin' From th Devil
TTITLE5=I Been Mean
TTITLE6=Lonesome Heart Blues
TTITLE7=He's the Man
TTITLE8=You Got the Soul
TTITLE9=Blue Is the Color of My Heart
EXTD=
EXTT0=
EXTT1=
EXTT2=
EXTT3=
EXTT4=
EXTT5=
EXTT6=
EXTT7=
EXTT8=
EXTT9=
PLAYORDER=
